<svg aria-hidden="true" style="position: absolute; width: 0; height: 0; overflow: hidden;" version="1.1" xmlns="http://www.w3.org/2000/svg" xmlns:xlink="http://www.w3.org/1999/xlink">
<defs>
<symbol id="icon-logo_applemusic_onlight" viewBox="0 0 100 32">
<path fill="#000" style="fill: var(--color1, #000)" d="M35.821 17.739h-3.511l-0.843 2.49h-1.488l3.327-9.213h1.545l3.327 9.213h-1.513l-0.843-2.49zM32.673 16.59h2.784l-1.373-4.041h-0.038l-1.373 4.041z"></path>
<path fill="#000" style="fill: var(--color1, #000)" d="M45.352 16.871c0 2.088-1.117 3.429-2.803 3.429-0.871 0.046-1.692-0.411-2.113-1.175h-0.032v3.326h-1.379v-8.939h1.334v1.118h0.026c0.439-0.76 1.262-1.217 2.139-1.188 1.705 0 2.828 1.347 2.828 3.428zM43.936 16.871c0-1.359-0.702-2.254-1.775-2.254-1.053 0-1.762 0.913-1.762 2.254 0 1.354 0.709 2.26 1.762 2.26 1.072 0 1.775-0.888 1.775-2.26z"></path>
<path fill="#000" style="fill: var(--color1, #000)" d="M52.74 16.871c0 2.088-1.117 3.429-2.803 3.429-0.871 0.046-1.692-0.411-2.113-1.175h-0.032v3.326h-1.379v-8.939h1.334v1.118h0.026c0.439-0.76 1.261-1.217 2.139-1.188 1.704 0 2.828 1.347 2.828 3.428zM51.322 16.871c0-1.359-0.702-2.254-1.775-2.254-1.053 0-1.762 0.913-1.762 2.254 0 1.354 0.709 2.26 1.762 2.26 1.073 0 1.775-0.888 1.775-2.26z"></path>
<path fill="#000" style="fill: var(--color1, #000)" d="M53.851 11.016h1.378v9.213h-1.378v-9.213z"></path>
<path fill="#000" style="fill: var(--color1, #000)" d="M62.406 18.257c-0.314 1.313-1.549 2.191-2.892 2.056-1.953 0-3.167-1.309-3.167-3.409 0-2.107 1.22-3.473 3.11-3.473 1.858 0 3.026 1.277 3.026 3.313v0.473h-4.744v0.083c-0.044 0.5 0.128 0.995 0.474 1.359s0.831 0.562 1.333 0.543c0.669 0.063 1.3-0.322 1.552-0.945h1.309zM57.745 16.252h3.358c0.025-0.45-0.138-0.889-0.451-1.212s-0.746-0.502-1.196-0.492c-0.453-0.003-0.89 0.176-1.211 0.496s-0.501 0.754-0.5 1.209z"></path>
<path fill="#000" style="fill: var(--color1, #000)" d="M74.378 20.229v-6.781h-0.045l-2.778 6.711h-1.060l-2.784-6.711h-0.044v6.781h-1.303v-9.213h1.653l2.982 7.272h0.052l2.975-7.272h1.66v9.213h-1.309z"></path>
<path fill="#000" style="fill: var(--color1, #000)" d="M83.030 20.229h-1.321v-1.156h-0.033c-0.363 0.81-1.196 1.303-2.081 1.232-0.659 0.038-1.301-0.216-1.755-0.695s-0.674-1.133-0.601-1.788v-4.31h1.379v4.042c0 1.022 0.485 1.564 1.436 1.564 0.452 0.015 0.89-0.169 1.197-0.502s0.452-0.785 0.399-1.234v-3.869h1.379l-0.001 6.716z"></path>
<path fill="#000" style="fill: var(--color1, #000)" d="M86.951 13.436c1.487 0 2.554 0.824 2.586 2.012h-1.295c-0.058-0.594-0.562-0.958-1.328-0.958-0.748 0-1.246 0.344-1.246 0.868 0 0.402 0.332 0.67 1.029 0.843l1.13 0.261c1.354 0.326 1.864 0.824 1.864 1.808 0 1.213-1.149 2.043-2.79 2.043-1.583 0-2.65-0.811-2.751-2.037h1.366c0.097 0.646 0.613 0.99 1.45 0.99 0.823 0 1.342-0.339 1.342-0.875 0-0.414-0.256-0.638-0.958-0.817l-1.201-0.294c-1.213-0.294-1.826-0.913-1.826-1.844-0.002-1.189 1.064-2 2.629-2z"></path>
<path fill="#000" style="fill: var(--color1, #000)" d="M90.764 11.744c-0.006-0.326 0.185-0.623 0.485-0.752s0.646-0.064 0.878 0.165c0.233 0.229 0.303 0.575 0.179 0.877s-0.419 0.498-0.744 0.496c-0.438 0.003-0.794-0.348-0.798-0.785zM90.873 13.513h1.379v6.717h-1.379v-6.717z"></path>
<path fill="#000" style="fill: var(--color1, #000)" d="M98.192 15.824c-0.125-0.762-0.814-1.3-1.583-1.239-1.059 0-1.762 0.888-1.762 2.286 0 1.43 0.708 2.293 1.775 2.293 0.76 0.076 1.449-0.453 1.57-1.207h1.327c-0.171 1.445-1.463 2.489-2.911 2.357-1.915 0-3.167-1.309-3.167-3.442 0-2.087 1.251-3.441 3.154-3.441 1.458-0.124 2.75 0.938 2.911 2.393l-1.314-0.001z"></path>
<path fill="#000" style="fill: var(--color1, #000)" d="M27.2 10.907c0-0.326 0-0.651 0-0.975 0-0.272 0-0.544-0.012-0.816-0.008-0.598-0.060-1.195-0.158-1.786-0.1-0.591-0.289-1.164-0.559-1.7-0.548-1.077-1.423-1.952-2.5-2.501-0.535-0.269-1.107-0.458-1.697-0.559-0.591-0.097-1.188-0.15-1.787-0.158-0.272-0.008-0.544-0.011-0.816-0.012h-12.138c-0.272 0-0.544 0-0.816 0.012-0.6 0.008-1.199 0.060-1.791 0.158-0.591 0.101-1.163 0.29-1.697 0.56-1.075 0.548-1.95 1.422-2.498 2.497-0.27 0.535-0.458 1.108-0.559 1.699-0.097 0.591-0.15 1.188-0.158 1.787-0.008 0.272-0.011 0.544-0.012 0.816-0.001 0.329-0.001 0.655-0.001 0.978v10.182c0 0.324 0 0.649 0 0.975 0 0.272 0 0.544 0.012 0.816 0.008 0.599 0.060 1.196 0.158 1.787 0.101 0.591 0.289 1.164 0.559 1.699 0.549 1.075 1.423 1.949 2.498 2.497 0.535 0.27 1.107 0.459 1.697 0.56 0.591 0.098 1.188 0.15 1.787 0.156 0.272 0.008 0.544 0.011 0.816 0.012 0.325 0 0.65 0 0.975 0h11.152c0.272 0 0.544 0 0.816-0.012 0.599-0.006 1.196-0.059 1.787-0.156 0.591-0.101 1.164-0.29 1.699-0.56 1.074-0.549 1.948-1.422 2.497-2.497 0.27-0.535 0.459-1.108 0.56-1.699 0.098-0.591 0.15-1.188 0.156-1.787 0.008-0.272 0.011-0.544 0.012-0.816 0-0.325 0-0.65 0-0.975v-10.182h0.018z"></path>
<path fill="#fff" style="fill: var(--color2, #fff)" d="M19.229 6.555c-0.065 0-0.65 0.109-0.721 0.124l-8.084 1.632c-0.184 0.032-0.358 0.109-0.505 0.226-0.152 0.136-0.249 0.322-0.272 0.525-0.012 0.090-0.018 0.181-0.018 0.272v10.118c0.022 0.235-0.042 0.47-0.18 0.661-0.152 0.171-0.363 0.278-0.59 0.302l-0.528 0.106c-0.508 0.084-1.009 0.211-1.496 0.379-0.333 0.12-0.635 0.313-0.883 0.567-0.807 0.869-0.759 2.227 0.107 3.037 0.275 0.255 0.614 0.429 0.982 0.503 0.408 0.082 0.831 0.053 1.458-0.073 0.332-0.062 0.652-0.18 0.945-0.348 0.295-0.173 0.549-0.409 0.744-0.69s0.329-0.598 0.396-0.933c0.066-0.329 0.096-0.665 0.090-1.001v-8.773c0-0.471 0.136-0.594 0.513-0.68 0 0 6.72-1.36 7.034-1.416 0.437-0.084 0.643 0.041 0.643 0.499v5.984c0 0.237 0 0.477-0.165 0.68-0.152 0.17-0.362 0.277-0.589 0.301l-0.529 0.107c-0.508 0.084-1.009 0.21-1.496 0.378-0.333 0.12-0.635 0.314-0.883 0.567-0.397 0.413-0.61 0.969-0.59 1.541s0.272 1.112 0.697 1.496c0.275 0.253 0.615 0.426 0.982 0.499 0.408 0.082 0.832 0.052 1.459-0.073 0.332-0.061 0.651-0.177 0.944-0.344 0.295-0.173 0.549-0.408 0.744-0.688s0.329-0.598 0.396-0.933c0.062-0.33 0.087-0.666 0.076-1.002v-12.836c-0.001-0.465-0.246-0.752-0.684-0.714z"></path>
</symbol>
<symbol id="icon-logo_itunes_onlight" viewBox="0 0 100 32">
<path fill="#000" style="fill: var(--color1, #000)" d="M0 5.79h20.421v20.421h-20.421v-20.421z"></path>
<path fill="#000" style="fill: var(--color1, #000)" d="M25.113 11.3c0-0.483 0.391-0.867 0.875-0.867 0.49 0 0.882 0.386 0.882 0.867 0 0.475-0.391 0.861-0.882 0.861-0.484 0-0.875-0.386-0.875-0.861zM25.231 13.238h1.511v7.36h-1.511v-7.36zM30.764 20.598v-8.746h-3.093v-1.35h7.745v1.35h-3.086v8.745h-1.567v0.002zM41.73 20.598h-1.449v-1.266h-0.035c-0.419 0.882-1.154 1.35-2.281 1.35-1.602 0-2.582-1.035-2.582-2.722v-4.722h1.511v4.429c0 1.119 0.531 1.714 1.574 1.714 1.091 0 1.749-0.755 1.749-1.903v-4.239h1.511v7.361h0.002zM43.216 13.238h1.441v1.252h0.036c0.441-0.882 1.182-1.336 2.316-1.336 1.623 0 2.553 1.043 2.553 2.728v4.716h-1.518v-4.422c0-1.106-0.51-1.722-1.574-1.722-1.084 0-1.742 0.77-1.742 1.903v4.24h-1.511v-7.361h-0.001zM57.323 18.436c-0.203 1.337-1.505 2.253-3.169 2.253-2.141 0-3.47-1.434-3.47-3.736 0-2.309 1.337-3.806 3.407-3.806 2.036 0 3.316 1.399 3.316 3.631v0.518h-5.198v0.091c0 1.259 0.791 2.085 1.979 2.085 0.84 0 1.498-0.398 1.701-1.035h1.434zM52.217 16.239h3.679c-0.035-1.126-0.755-1.868-1.805-1.868-1.042 0-1.798 0.756-1.874 1.868zM61.322 13.154c1.63 0 2.798 0.902 2.833 2.203h-1.42c-0.062-0.651-0.616-1.050-1.455-1.050-0.819 0-1.365 0.378-1.365 0.951 0 0.441 0.363 0.734 1.127 0.923l1.238 0.287c1.483 0.356 2.043 0.902 2.043 1.98 0 1.33-1.259 2.239-3.058 2.239-1.735 0-2.903-0.889-3.016-2.232h1.498c0.106 0.707 0.672 1.084 1.588 1.084 0.902 0 1.47-0.371 1.47-0.958 0-0.455-0.28-0.699-1.050-0.896l-1.315-0.322c-1.33-0.322-2.001-1.001-2.001-2.022 0.001-1.3 1.169-2.188 2.883-2.188zM69.678 17.786c0.112 1.001 1.084 1.658 2.414 1.658 1.273 0 2.19-0.658 2.19-1.561 0-0.783-0.554-1.252-1.861-1.574l-1.308-0.315c-1.854-0.448-2.715-1.315-2.715-2.722 0-1.742 1.518-2.938 3.673-2.938 2.134 0 3.597 1.196 3.646 2.938h-1.526c-0.091-1.008-0.923-1.617-2.141-1.617s-2.050 0.616-2.050 1.511c0 0.714 0.531 1.133 1.834 1.455l1.113 0.273c2.071 0.49 2.931 1.322 2.931 2.799 0 1.89-1.505 3.072-3.898 3.072-2.239 0-3.75-1.154-3.847-2.981l1.546 0.001zM79.054 11.495v1.742h1.399v1.196h-1.399v4.058c0 0.63 0.28 0.923 0.896 0.923 0.154 0 0.398-0.021 0.497-0.035v1.189c-0.168 0.042-0.504 0.070-0.84 0.070-1.49 0-2.071-0.56-2.071-1.986v-4.219h-1.070v-1.196h1.070v-1.742h1.518v0.002zM81.074 16.918c0-2.316 1.365-3.771 3.492-3.771 2.134 0 3.491 1.455 3.491 3.771 0 2.322-1.35 3.771-3.491 3.771s-3.492-1.448-3.492-3.771zM86.518 16.918c0-1.588-0.727-2.526-1.952-2.526s-1.952 0.945-1.952 2.526c0 1.594 0.727 2.526 1.952 2.526s1.952-0.93 1.952-2.526zM89.222 13.238h1.441v1.252h0.036c0.23-0.833 0.902-1.33 1.77-1.33 0.218 0 0.398 0.029 0.518 0.056v1.413c-0.118-0.049-0.385-0.091-0.678-0.091-0.972 0-1.574 0.658-1.574 1.693v4.365h-1.511v-7.359h-0.001zM99.916 18.436c-0.203 1.337-1.505 2.253-3.169 2.253-2.141 0-3.47-1.434-3.47-3.736 0-2.309 1.337-3.806 3.407-3.806 2.036 0 3.316 1.399 3.316 3.631v0.518h-5.198v0.091c0 1.259 0.791 2.085 1.979 2.085 0.84 0 1.498-0.398 1.701-1.035h1.434zM94.809 16.239h3.679c-0.035-1.126-0.755-1.868-1.805-1.868-1.042 0-1.798 0.756-1.874 1.868z"></path>
<path fill="#000" style="fill: var(--color1, #000)" d="M10.206 17.319h4.774v5.438h-4.774v-5.438z"></path>
<path fill="#000" style="fill: var(--color1, #000)" d="M2.641 13.587h5.602v3.732h-5.602v-3.732z"></path>
<path fill="#000" style="fill: var(--color1, #000)" d="M5.433 17.319h4.774v5.438h-4.774v-5.438z"></path>
<path fill="#000" style="fill: var(--color1, #000)" d="M12.168 13.586h5.603v3.732h-5.603v-3.732z"></path>
<path fill="#fff" style="fill: var(--color2, #fff)" d="M8.244 13.587l-1.213 3.732 3.175 2.306 3.175-2.306-1.213-3.732z"></path>
<path fill="#000" style="fill: var(--color1, #000)" d="M8.244 8.348h3.925v5.239h-3.925v-5.239z"></path>
</symbol>
<symbol id="icon-logo_spotify_onlight" viewBox="0 0 100 32">
<path fill="#fff" style="fill: var(--color2, #fff)" d="M21.869 22.628v0c0.27-0.439 0.13-1.014-0.31-1.284-3.95-2.414-8.848-2.976-14.558-1.67-0.503 0.114-0.817 0.615-0.703 1.118 0.115 0.502 0.617 0.818 1.119 0.702 5.217-1.191 9.648-0.706 13.167 1.446 0.44 0.269 1.015 0.13 1.284-0.312z"></path>
<path fill="#fff" style="fill: var(--color2, #fff)" d="M25.782 13.808c0.394-0.665 0.175-1.526-0.49-1.921-5.562-3.302-14.364-3.613-19.658-2.005-0.741 0.225-1.158 1.008-0.934 1.749s1.008 1.158 1.748 0.934c4.614-1.4 12.582-1.136 17.414 1.733 0.664 0.395 1.526 0.176 1.92-0.49z"></path>
<path fill="#fff" style="fill: var(--color2, #fff)" d="M23.325 16.942c-4.627-2.843-11.397-3.643-16.839-1.991-0.618 0.188-0.966 0.839-0.782 1.458 0.187 0.616 0.84 0.965 1.458 0.778 4.765-1.446 10.914-0.729 14.941 1.746 0.55 0.338 1.148 0.166 1.613-0.385v0.001c0.465-0.55 0.159-1.27-0.39-1.607z"></path>
<path fill="#24cf5f" style="fill: var(--color3, #24cf5f)" d="M14.883 1.013v0c-8.367-0.001-14.932 6.71-14.932 14.986 0 8.278 6.738 14.989 15.016 14.989s14.946-6.71 14.946-14.989c0-8.276-6.662-14.986-15.030-14.986zM7.418 21.494c-0.502 0.116-1.004-0.199-1.119-0.702-0.114-0.502 0.2-1.004 0.703-1.118 5.71-1.306 10.606-0.744 14.558 1.67 0.44 0.27 0.581 0.845 0.31 1.285l0.001-0.001c-0.269 0.442-0.845 0.58-1.284 0.311-3.52-2.151-7.951-2.636-13.168-1.445zM23.715 18.549v0c-0.465 0.55-1.064 0.722-1.614 0.384-4.027-2.475-10.173-3.193-14.938-1.746-0.618 0.186-1.273-0.162-1.46-0.778-0.186-0.618 0.162-1.27 0.779-1.458 5.443-1.651 12.215-0.852 16.842 1.991 0.549 0.338 0.854 1.058 0.39 1.607zM23.862 14.298c-4.831-2.869-12.8-3.133-17.414-1.733-0.74 0.224-1.524-0.194-1.748-0.934s0.194-1.524 0.934-1.749c5.294-1.608 14.096-1.297 19.658 2.005 0.666 0.395 0.884 1.256 0.49 1.921-0.394 0.666-1.256 0.886-1.92 0.49z"></path>
<path fill="#24cf5f" style="fill: var(--color3, #24cf5f)" d="M40.881 14.849c-2.586-0.618-3.048-1.050-3.048-1.961 0-0.86 0.81-1.438 2.014-1.438 1.166 0 2.323 0.44 3.537 1.344 0.037 0.027 0.083 0.038 0.128 0.031s0.084-0.032 0.112-0.070l1.263-1.781c0.051-0.074 0.038-0.175-0.032-0.23-1.444-1.158-3.070-1.722-4.97-1.722-2.794 0-4.746 1.678-4.746 4.076 0 2.573 1.684 3.484 4.594 4.187 2.477 0.57 2.894 1.049 2.894 1.902 0 0.946-0.846 1.535-2.205 1.535-1.511 0-2.742-0.509-4.12-1.702-0.034-0.030-0.081-0.043-0.125-0.041-0.045 0.004-0.087 0.025-0.116 0.060l-1.416 1.686c-0.059 0.070-0.051 0.174 0.016 0.234 1.604 1.432 3.576 2.188 5.704 2.188 3.011 0 4.957-1.646 4.957-4.191 0.005-2.15-1.282-3.34-4.433-4.106l-0.008-0.002z"></path>
<path fill="#24cf5f" style="fill: var(--color3, #24cf5f)" d="M52.132 12.296c-1.306 0-2.376 0.514-3.258 1.568v-1.186c0-0.094-0.077-0.17-0.17-0.17h-2.317c-0.094 0-0.169 0.076-0.169 0.17v13.173c0 0.094 0.075 0.17 0.169 0.17h2.317c0.094 0 0.17-0.077 0.17-0.17v-4.158c0.882 0.99 1.954 1.474 3.258 1.474 2.425 0 4.88-1.867 4.88-5.435 0.004-3.569-2.452-5.437-4.878-5.437h-0.002zM54.317 17.733c0 1.817-1.12 3.086-2.723 3.086-1.584 0-2.778-1.326-2.778-3.086s1.194-3.085 2.778-3.085c1.578-0.001 2.723 1.297 2.723 3.085v0z"></path>
<path fill="#24cf5f" style="fill: var(--color3, #24cf5f)" d="M63.303 12.296c-3.123 0-5.57 2.405-5.57 5.475 0 3.037 2.43 5.417 5.532 5.417 3.134 0 5.588-2.397 5.588-5.455 0-3.049-2.438-5.436-5.55-5.436v-0.001zM63.303 20.835c-1.661 0-2.914-1.334-2.914-3.104 0-1.778 1.21-3.066 2.875-3.066 1.672 0 2.933 1.334 2.933 3.106 0 1.777-1.217 3.065-2.894 3.065v0z"></path>
<path fill="#24cf5f" style="fill: var(--color3, #24cf5f)" d="M75.522 12.508h-2.55v-2.607c0-0.094-0.076-0.17-0.169-0.17h-2.317c-0.094 0-0.17 0.076-0.17 0.17v2.607h-1.114c-0.094 0-0.169 0.076-0.169 0.17v1.991c0 0.094 0.075 0.17 0.169 0.17h1.114v5.154c0 2.082 1.037 3.138 3.081 3.138 0.831 0 1.52-0.172 2.17-0.54 0.053-0.030 0.086-0.086 0.086-0.147v-1.896c0-0.058-0.030-0.114-0.080-0.145-0.050-0.032-0.114-0.034-0.166-0.008-0.446 0.225-0.878 0.328-1.36 0.328-0.744 0-1.075-0.338-1.075-1.094v-4.788h2.55c0.093 0 0.169-0.076 0.169-0.17v-1.991c0.004-0.094-0.071-0.17-0.166-0.17l-0.002-0.001z"></path>
<path fill="#24cf5f" style="fill: var(--color3, #24cf5f)" d="M84.406 12.518v-0.32c0-0.942 0.362-1.362 1.172-1.362 0.483 0 0.871 0.096 1.306 0.24 0.054 0.017 0.11 0.009 0.153-0.023 0.045-0.032 0.070-0.083 0.070-0.138v-1.952c0-0.075-0.049-0.141-0.12-0.163-0.458-0.136-1.046-0.277-1.926-0.277-2.14 0-3.271 1.205-3.271 3.484v0.49h-1.114c-0.093 0-0.17 0.077-0.17 0.17v2.002c0 0.094 0.077 0.17 0.17 0.17h1.114v7.949c0 0.094 0.075 0.17 0.169 0.17h2.317c0.094 0 0.17-0.076 0.17-0.17v-7.949h2.163l3.314 7.946c-0.377 0.835-0.746 1.001-1.25 1.001-0.409 0-0.839-0.122-1.278-0.362-0.042-0.023-0.090-0.027-0.135-0.013s-0.082 0.048-0.1 0.091l-0.786 1.722c-0.038 0.082-0.006 0.177 0.073 0.219 0.819 0.444 1.56 0.634 2.475 0.634 1.71 0 2.655-0.797 3.49-2.941l4.020-10.387c0.019-0.053 0.014-0.111-0.018-0.158s-0.083-0.074-0.138-0.074h-2.414c-0.072 0-0.136 0.046-0.16 0.114l-2.471 7.058-2.706-7.063c-0.025-0.066-0.090-0.109-0.158-0.109l-3.959-0.001z"></path>
<path fill="#24cf5f" style="fill: var(--color3, #24cf5f)" d="M79.256 12.508h-2.317c-0.094 0-0.17 0.076-0.17 0.17v10.11c0 0.094 0.077 0.17 0.17 0.17h2.317c0.093 0 0.17-0.076 0.17-0.17v-10.108c0-0.094-0.075-0.17-0.17-0.171v0z"></path>
<path fill="#24cf5f" style="fill: var(--color3, #24cf5f)" d="M78.11 7.905c-0.918 0-1.662 0.743-1.662 1.662s0.745 1.662 1.662 1.662 1.662-0.744 1.662-1.662c0-0.918-0.743-1.662-1.662-1.662v0z"></path>
<path fill="#24cf5f" style="fill: var(--color3, #24cf5f)" d="M98.41 15.758c-0.918 0-1.63-0.737-1.63-1.631s0.723-1.639 1.639-1.639c0.918 0 1.63 0.737 1.63 1.63s-0.723 1.64-1.639 1.64v0zM98.418 12.65c-0.836 0-1.467 0.664-1.467 1.477s0.626 1.468 1.458 1.468c0.834 0 1.468-0.663 1.468-1.477s-0.629-1.468-1.459-1.468v0zM98.78 14.286l0.461 0.646h-0.389l-0.416-0.592h-0.357v0.592h-0.325v-1.711h0.762c0.398 0 0.66 0.203 0.66 0.546 0.001 0.281-0.162 0.452-0.396 0.52h-0.001zM98.505 13.514h-0.426v0.542h0.426c0.212 0 0.338-0.104 0.338-0.271-0.001-0.177-0.127-0.27-0.338-0.27v0z"></path>
</symbol>
<symbol id="icon-instagram-f" viewBox="0 0 32 32">
<path fill="#fff" style="fill: var(--color1, #fff)" d="M31.968 9.408c-0.074-1.701-0.349-2.869-0.742-3.882-0.424-1.111-1.054-2.059-1.85-2.837l-0.001-0.001c-0.78-0.792-1.724-1.419-2.778-1.827l-0.054-0.018c-1.019-0.394-2.181-0.667-3.882-0.742-1.712-0.082-2.256-0.101-6.602-0.101-4.344 0-4.888 0.019-6.595 0.094-1.699 0.074-2.869 0.349-3.88 0.742-1.112 0.424-2.060 1.054-2.839 1.85l-0.001 0.001c-0.791 0.78-1.418 1.724-1.825 2.778l-0.018 0.054c-0.395 1.019-0.669 2.181-0.744 3.882-0.082 1.712-0.101 2.256-0.101 6.602 0 4.344 0.019 4.888 0.094 6.595 0.075 1.701 0.35 2.869 0.744 3.882 0.426 1.11 1.055 2.057 1.849 2.837l0.001 0.001c0.78 0.792 1.724 1.418 2.778 1.825l0.054 0.018c1.019 0.395 2.182 0.67 3.882 0.744 1.707 0.075 2.251 0.094 6.595 0.094 4.346 0 4.89-0.019 6.595-0.094 1.701-0.074 2.869-0.349 3.882-0.742 2.157-0.85 3.833-2.526 4.664-4.628l0.019-0.055c0.394-1.019 0.669-2.182 0.744-3.882 0.075-1.707 0.093-2.251 0.093-6.595s-0.006-4.888-0.080-6.595zM29.088 22.474c-0.070 1.563-0.333 2.406-0.55 2.97-0.552 1.399-1.64 2.486-3.004 3.024l-0.036 0.012c-0.56 0.219-1.411 0.482-2.968 0.55-1.688 0.075-2.194 0.094-6.464 0.094-4.269 0-4.782-0.019-6.464-0.094-1.563-0.069-2.406-0.331-2.97-0.55-0.721-0.269-1.334-0.676-1.836-1.192l-0.001-0.001c-0.517-0.503-0.924-1.117-1.184-1.803l-0.011-0.034c-0.218-0.563-0.48-1.413-0.549-2.97-0.075-1.688-0.094-2.195-0.094-6.464 0-4.27 0.019-4.784 0.094-6.464 0.069-1.563 0.331-2.406 0.549-2.97 0.269-0.722 0.678-1.337 1.198-1.837l0.002-0.002c0.504-0.517 1.119-0.923 1.806-1.182l0.034-0.011c0.56-0.219 1.411-0.48 2.968-0.55 1.688-0.074 2.195-0.093 6.464-0.093 4.275 0 4.782 0.019 6.464 0.093 1.563 0.069 2.406 0.331 2.97 0.55 0.693 0.256 1.325 0.662 1.837 1.194 0.531 0.52 0.938 1.144 1.195 1.84 0.218 0.56 0.48 1.411 0.549 2.968 0.075 1.688 0.094 2.194 0.094 6.464 0 4.269-0.019 4.768-0.094 6.458z"></path>
<path fill="#fff" style="fill: var(--color1, #fff)" d="M16.059 7.782c-4.539 0.002-8.218 3.682-8.219 8.221v0c0 0 0 0.001 0 0.002 0 4.541 3.681 8.222 8.222 8.222s8.222-3.681 8.222-8.222c0-4.541-3.681-8.222-8.222-8.222-0.001 0-0.001 0-0.002 0h0zM16.059 21.334c-2.945-0-5.332-2.388-5.332-5.333s2.388-5.333 5.333-5.333c0 0 0.001 0 0.001 0h-0c2.946 0 5.334 2.388 5.334 5.334s-2.388 5.334-5.334 5.334v0zM26.525 7.458c0 1.060-0.86 1.92-1.92 1.92s-1.92-0.86-1.92-1.92v0c0-1.060 0.86-1.92 1.92-1.92s1.92 0.86 1.92 1.92v0z"></path>
</symbol>
<symbol id="icon-instagram" viewBox="0 0 32 32">
<path d="M16 0c-4.347 0-4.889 0.020-6.596 0.096-1.704 0.080-2.864 0.348-3.884 0.744-1.052 0.408-1.945 0.956-2.835 1.845s-1.439 1.781-1.845 2.835c-0.396 1.020-0.665 2.18-0.744 3.884-0.080 1.707-0.096 2.249-0.096 6.596s0.020 4.889 0.096 6.596c0.080 1.703 0.348 2.864 0.744 3.884 0.408 1.051 0.956 1.945 1.845 2.835 0.889 0.888 1.781 1.439 2.835 1.845 1.021 0.395 2.181 0.665 3.884 0.744 1.707 0.080 2.249 0.096 6.596 0.096s4.889-0.020 6.596-0.096c1.703-0.080 2.864-0.349 3.884-0.744 1.051-0.408 1.945-0.957 2.835-1.845 0.888-0.889 1.439-1.78 1.845-2.835 0.395-1.020 0.665-2.181 0.744-3.884 0.080-1.707 0.096-2.249 0.096-6.596s-0.020-4.889-0.096-6.596c-0.080-1.703-0.349-2.865-0.744-3.884-0.408-1.052-0.957-1.945-1.845-2.835-0.889-0.889-1.78-1.439-2.835-1.845-1.020-0.396-2.181-0.665-3.884-0.744-1.707-0.080-2.249-0.096-6.596-0.096zM16 2.88c4.271 0 4.78 0.021 6.467 0.095 1.56 0.073 2.407 0.332 2.969 0.553 0.749 0.289 1.28 0.636 1.843 1.195 0.559 0.56 0.905 1.092 1.195 1.841 0.219 0.563 0.48 1.409 0.551 2.969 0.076 1.688 0.093 2.195 0.093 6.467s-0.020 4.78-0.099 6.467c-0.081 1.56-0.341 2.407-0.561 2.969-0.299 0.749-0.639 1.28-1.199 1.843-0.559 0.559-1.099 0.905-1.84 1.195-0.56 0.219-1.42 0.48-2.98 0.551-1.699 0.076-2.199 0.093-6.479 0.093-4.281 0-4.781-0.020-6.479-0.099-1.561-0.081-2.421-0.341-2.981-0.561-0.759-0.299-1.28-0.639-1.839-1.199-0.561-0.559-0.92-1.099-1.2-1.84-0.22-0.56-0.479-1.42-0.56-2.98-0.060-1.68-0.081-2.199-0.081-6.459 0-4.261 0.021-4.781 0.081-6.481 0.081-1.56 0.34-2.419 0.56-2.979 0.28-0.76 0.639-1.28 1.2-1.841 0.559-0.559 1.080-0.919 1.839-1.197 0.56-0.221 1.401-0.481 2.961-0.561 1.7-0.060 2.2-0.080 6.479-0.080zM16 7.784c-4.54 0-8.216 3.68-8.216 8.216 0 4.54 3.68 8.216 8.216 8.216 4.54 0 8.216-3.68 8.216-8.216 0-4.54-3.68-8.216-8.216-8.216zM16 21.333c-2.947 0-5.333-2.387-5.333-5.333s2.387-5.333 5.333-5.333 5.333 2.387 5.333 5.333-2.387 5.333-5.333 5.333zM26.461 7.46c0 1.060-0.861 1.92-1.92 1.92-1.060 0-1.92-0.861-1.92-1.92s0.861-1.919 1.92-1.919c1.057-0.001 1.92 0.86 1.92 1.919z"></path>
</symbol>
</defs>
</svg>
