<!-- Generated by IcoMoon.io -->
<svg version="1.1" xmlns="http://www.w3.org/2000/svg" width="1022" height="1024" viewBox="0 0 1022 1024">
<title></title>
<g id="icomoon-ignore">
</g>
<path fill="#fff" d="M0.095 762.774v0.045c0.614 22.71 0.818 45.552 4.632 68.119 4.059 23.877 9.862 47.16 20.93 68.831q22.448 43.997 61.465 74.334c18.627 14.526 38.976 26.062 61.502 33.337 32.842 10.594 66.728 14.653 101.108 14.854 21.45 0.135 42.888 0.671 64.346 0.581 155.83-0.655 311.664 1.125 467.502-0.962 20.677-0.278 41.018-2.803 61.314-6.514 38.898-7.12 73.275-23.733 102.688-49.959 34.278-30.571 57.406-67.992 67.849-113.151 6.829-29.519 8.54-59.464 8.83-89.52v-5.995c0-2.324-0.884-510.639-0.966-517.358-0.225-18.455-1.588-36.774-5.045-54.935-4.211-22.129-10.156-43.694-20.75-63.712-11.192-21.155-25.206-40.171-42.556-56.792-26.553-25.464-57.197-43.469-92.887-52.995-32.22-8.593-65.091-10.508-98.207-10.475-0.102-0.142-0.169-0.316-0.184-0.504v-0.003h-501.158c0 0.172 0 0.34-0.029 0.507-18.794 0.344-37.613 0.201-56.309 2.521-20.48 2.545-40.768 6.379-60.152 13.54-30.534 11.294-57.066 28.885-79.728 52.377-25.677 26.598-43.784 57.377-53.375 93.211-8.573 31.97-10.439 64.575-10.484 97.413z"></path>
<path fill="#f00" d="M529.284 793.275l-167.582-3.065c-54.259-1.068-108.654 1.064-161.849-10.001-80.923-16.532-86.655-97.589-92.654-165.581-8.266-95.588-5.066-192.911 10.533-287.701 8.806-53.187 43.461-84.924 97.053-88.378 180.914-12.534 363.030-11.048 543.543-5.201 19.064 0.536 38.26 3.466 57.058 6.801 92.793 16.266 95.056 108.122 101.071 185.447 5.999 78.124 3.466 156.648-8 234.24-9.199 64.244-26.798 118.118-101.071 123.319-93.059 6.801-183.983 12.276-277.304 10.533 0.004-0.413-0.532-0.413-0.798-0.413zM430.762 630.628c70.128-40.265 138.918-79.859 208.645-119.853-70.259-40.265-138.918-79.859-208.645-119.853z"></path>
</svg>
