<!-- Generated by IcoMoon.io -->
<svg version="1.1" xmlns="http://www.w3.org/2000/svg" width="100" height="32" viewBox="0 0 100 32">
<title>logo_spotify_onlight</title>
<path fill="#fff" d="M21.869 22.628v0c0.27-0.439 0.13-1.014-0.31-1.284-3.95-2.414-8.848-2.976-14.558-1.67-0.503 0.114-0.817 0.615-0.703 1.118 0.115 0.502 0.617 0.818 1.119 0.702 5.217-1.191 9.648-0.706 13.167 1.446 0.44 0.269 1.015 0.13 1.284-0.312z"></path>
<path fill="#fff" d="M25.782 13.808c0.394-0.665 0.175-1.526-0.49-1.921-5.562-3.302-14.364-3.613-19.658-2.005-0.741 0.225-1.158 1.008-0.934 1.749s1.008 1.158 1.748 0.934c4.614-1.4 12.582-1.136 17.414 1.733 0.664 0.395 1.526 0.176 1.92-0.49z"></path>
<path fill="#fff" d="M23.325 16.942c-4.627-2.843-11.397-3.643-16.839-1.991-0.618 0.188-0.966 0.839-0.782 1.458 0.187 0.616 0.84 0.965 1.458 0.778 4.765-1.446 10.914-0.729 14.941 1.746 0.55 0.338 1.148 0.166 1.613-0.385v0.001c0.465-0.55 0.159-1.27-0.39-1.607z"></path>
<path fill="#24cf5f" d="M14.883 1.013v0c-8.367-0.001-14.932 6.71-14.932 14.986 0 8.278 6.738 14.989 15.016 14.989s14.946-6.71 14.946-14.989c0-8.276-6.662-14.986-15.030-14.986zM7.418 21.494c-0.502 0.116-1.004-0.199-1.119-0.702-0.114-0.502 0.2-1.004 0.703-1.118 5.71-1.306 10.606-0.744 14.558 1.67 0.44 0.27 0.581 0.845 0.31 1.285l0.001-0.001c-0.269 0.442-0.845 0.58-1.284 0.311-3.52-2.151-7.951-2.636-13.168-1.445zM23.715 18.549v0c-0.465 0.55-1.064 0.722-1.614 0.384-4.027-2.475-10.173-3.193-14.938-1.746-0.618 0.186-1.273-0.162-1.46-0.778-0.186-0.618 0.162-1.27 0.779-1.458 5.443-1.651 12.215-0.852 16.842 1.991 0.549 0.338 0.854 1.058 0.39 1.607zM23.862 14.298c-4.831-2.869-12.8-3.133-17.414-1.733-0.74 0.224-1.524-0.194-1.748-0.934s0.194-1.524 0.934-1.749c5.294-1.608 14.096-1.297 19.658 2.005 0.666 0.395 0.884 1.256 0.49 1.921-0.394 0.666-1.256 0.886-1.92 0.49z"></path>
<path fill="#24cf5f" d="M40.881 14.849c-2.586-0.618-3.048-1.050-3.048-1.961 0-0.86 0.81-1.438 2.014-1.438 1.166 0 2.323 0.44 3.537 1.344 0.037 0.027 0.083 0.038 0.128 0.031s0.084-0.032 0.112-0.070l1.263-1.781c0.051-0.074 0.038-0.175-0.032-0.23-1.444-1.158-3.070-1.722-4.97-1.722-2.794 0-4.746 1.678-4.746 4.076 0 2.573 1.684 3.484 4.594 4.187 2.477 0.57 2.894 1.049 2.894 1.902 0 0.946-0.846 1.535-2.205 1.535-1.511 0-2.742-0.509-4.12-1.702-0.034-0.030-0.081-0.043-0.125-0.041-0.045 0.004-0.087 0.025-0.116 0.060l-1.416 1.686c-0.059 0.070-0.051 0.174 0.016 0.234 1.604 1.432 3.576 2.188 5.704 2.188 3.011 0 4.957-1.646 4.957-4.191 0.005-2.15-1.282-3.34-4.433-4.106l-0.008-0.002z"></path>
<path fill="#24cf5f" d="M52.132 12.296c-1.306 0-2.376 0.514-3.258 1.568v-1.186c0-0.094-0.077-0.17-0.17-0.17h-2.317c-0.094 0-0.169 0.076-0.169 0.17v13.173c0 0.094 0.075 0.17 0.169 0.17h2.317c0.094 0 0.17-0.077 0.17-0.17v-4.158c0.882 0.99 1.954 1.474 3.258 1.474 2.425 0 4.88-1.867 4.88-5.435 0.004-3.569-2.452-5.437-4.878-5.437h-0.002zM54.317 17.733c0 1.817-1.12 3.086-2.723 3.086-1.584 0-2.778-1.326-2.778-3.086s1.194-3.085 2.778-3.085c1.578-0.001 2.723 1.297 2.723 3.085v0z"></path>
<path fill="#24cf5f" d="M63.303 12.296c-3.123 0-5.57 2.405-5.57 5.475 0 3.037 2.43 5.417 5.532 5.417 3.134 0 5.588-2.397 5.588-5.455 0-3.049-2.438-5.436-5.55-5.436v-0.001zM63.303 20.835c-1.661 0-2.914-1.334-2.914-3.104 0-1.778 1.21-3.066 2.875-3.066 1.672 0 2.933 1.334 2.933 3.106 0 1.777-1.217 3.065-2.894 3.065v0z"></path>
<path fill="#24cf5f" d="M75.522 12.508h-2.55v-2.607c0-0.094-0.076-0.17-0.169-0.17h-2.317c-0.094 0-0.17 0.076-0.17 0.17v2.607h-1.114c-0.094 0-0.169 0.076-0.169 0.17v1.991c0 0.094 0.075 0.17 0.169 0.17h1.114v5.154c0 2.082 1.037 3.138 3.081 3.138 0.831 0 1.52-0.172 2.17-0.54 0.053-0.030 0.086-0.086 0.086-0.147v-1.896c0-0.058-0.030-0.114-0.080-0.145-0.050-0.032-0.114-0.034-0.166-0.008-0.446 0.225-0.878 0.328-1.36 0.328-0.744 0-1.075-0.338-1.075-1.094v-4.788h2.55c0.093 0 0.169-0.076 0.169-0.17v-1.991c0.004-0.094-0.071-0.17-0.166-0.17l-0.002-0.001z"></path>
<path fill="#24cf5f" d="M84.406 12.518v-0.32c0-0.942 0.362-1.362 1.172-1.362 0.483 0 0.871 0.096 1.306 0.24 0.054 0.017 0.11 0.009 0.153-0.023 0.045-0.032 0.070-0.083 0.070-0.138v-1.952c0-0.075-0.049-0.141-0.12-0.163-0.458-0.136-1.046-0.277-1.926-0.277-2.14 0-3.271 1.205-3.271 3.484v0.49h-1.114c-0.093 0-0.17 0.077-0.17 0.17v2.002c0 0.094 0.077 0.17 0.17 0.17h1.114v7.949c0 0.094 0.075 0.17 0.169 0.17h2.317c0.094 0 0.17-0.076 0.17-0.17v-7.949h2.163l3.314 7.946c-0.377 0.835-0.746 1.001-1.25 1.001-0.409 0-0.839-0.122-1.278-0.362-0.042-0.023-0.090-0.027-0.135-0.013s-0.082 0.048-0.1 0.091l-0.786 1.722c-0.038 0.082-0.006 0.177 0.073 0.219 0.819 0.444 1.56 0.634 2.475 0.634 1.71 0 2.655-0.797 3.49-2.941l4.020-10.387c0.019-0.053 0.014-0.111-0.018-0.158s-0.083-0.074-0.138-0.074h-2.414c-0.072 0-0.136 0.046-0.16 0.114l-2.471 7.058-2.706-7.063c-0.025-0.066-0.090-0.109-0.158-0.109l-3.959-0.001z"></path>
<path fill="#24cf5f" d="M79.256 12.508h-2.317c-0.094 0-0.17 0.076-0.17 0.17v10.11c0 0.094 0.077 0.17 0.17 0.17h2.317c0.093 0 0.17-0.076 0.17-0.17v-10.108c0-0.094-0.075-0.17-0.17-0.171v0z"></path>
<path fill="#24cf5f" d="M78.11 7.905c-0.918 0-1.662 0.743-1.662 1.662s0.745 1.662 1.662 1.662 1.662-0.744 1.662-1.662c0-0.918-0.743-1.662-1.662-1.662v0z"></path>
<path fill="#24cf5f" d="M98.41 15.758c-0.918 0-1.63-0.737-1.63-1.631s0.723-1.639 1.639-1.639c0.918 0 1.63 0.737 1.63 1.63s-0.723 1.64-1.639 1.64v0zM98.418 12.65c-0.836 0-1.467 0.664-1.467 1.477s0.626 1.468 1.458 1.468c0.834 0 1.468-0.663 1.468-1.477s-0.629-1.468-1.459-1.468v0zM98.78 14.286l0.461 0.646h-0.389l-0.416-0.592h-0.357v0.592h-0.325v-1.711h0.762c0.398 0 0.66 0.203 0.66 0.546 0.001 0.281-0.162 0.452-0.396 0.52h-0.001zM98.505 13.514h-0.426v0.542h0.426c0.212 0 0.338-0.104 0.338-0.271-0.001-0.177-0.127-0.27-0.338-0.27v0z"></path>
</svg>
