<!-- Generated by IcoMoon.io -->
<svg version="1.1" xmlns="http://www.w3.org/2000/svg" width="100" height="32" viewBox="0 0 100 32">
<title>logo_applemusic_onlight</title>
<path fill="#000" d="M35.821 17.739h-3.511l-0.843 2.49h-1.488l3.327-9.213h1.545l3.327 9.213h-1.513l-0.843-2.49zM32.673 16.59h2.784l-1.373-4.041h-0.038l-1.373 4.041z"></path>
<path fill="#000" d="M45.352 16.871c0 2.088-1.117 3.429-2.803 3.429-0.871 0.046-1.692-0.411-2.113-1.175h-0.032v3.326h-1.379v-8.939h1.334v1.118h0.026c0.439-0.76 1.262-1.217 2.139-1.188 1.705 0 2.828 1.347 2.828 3.428zM43.936 16.871c0-1.359-0.702-2.254-1.775-2.254-1.053 0-1.762 0.913-1.762 2.254 0 1.354 0.709 2.26 1.762 2.26 1.072 0 1.775-0.888 1.775-2.26z"></path>
<path fill="#000" d="M52.74 16.871c0 2.088-1.117 3.429-2.803 3.429-0.871 0.046-1.692-0.411-2.113-1.175h-0.032v3.326h-1.379v-8.939h1.334v1.118h0.026c0.439-0.76 1.261-1.217 2.139-1.188 1.704 0 2.828 1.347 2.828 3.428zM51.322 16.871c0-1.359-0.702-2.254-1.775-2.254-1.053 0-1.762 0.913-1.762 2.254 0 1.354 0.709 2.26 1.762 2.26 1.073 0 1.775-0.888 1.775-2.26z"></path>
<path fill="#000" d="M53.851 11.016h1.378v9.213h-1.378v-9.213z"></path>
<path fill="#000" d="M62.406 18.257c-0.314 1.313-1.549 2.191-2.892 2.056-1.953 0-3.167-1.309-3.167-3.409 0-2.107 1.22-3.473 3.11-3.473 1.858 0 3.026 1.277 3.026 3.313v0.473h-4.744v0.083c-0.044 0.5 0.128 0.995 0.474 1.359s0.831 0.562 1.333 0.543c0.669 0.063 1.3-0.322 1.552-0.945h1.309zM57.745 16.252h3.358c0.025-0.45-0.138-0.889-0.451-1.212s-0.746-0.502-1.196-0.492c-0.453-0.003-0.89 0.176-1.211 0.496s-0.501 0.754-0.5 1.209z"></path>
<path fill="#000" d="M74.378 20.229v-6.781h-0.045l-2.778 6.711h-1.060l-2.784-6.711h-0.044v6.781h-1.303v-9.213h1.653l2.982 7.272h0.052l2.975-7.272h1.66v9.213h-1.309z"></path>
<path fill="#000" d="M83.030 20.229h-1.321v-1.156h-0.033c-0.363 0.81-1.196 1.303-2.081 1.232-0.659 0.038-1.301-0.216-1.755-0.695s-0.674-1.133-0.601-1.788v-4.31h1.379v4.042c0 1.022 0.485 1.564 1.436 1.564 0.452 0.015 0.89-0.169 1.197-0.502s0.452-0.785 0.399-1.234v-3.869h1.379l-0.001 6.716z"></path>
<path fill="#000" d="M86.951 13.436c1.487 0 2.554 0.824 2.586 2.012h-1.295c-0.058-0.594-0.562-0.958-1.328-0.958-0.748 0-1.246 0.344-1.246 0.868 0 0.402 0.332 0.67 1.029 0.843l1.13 0.261c1.354 0.326 1.864 0.824 1.864 1.808 0 1.213-1.149 2.043-2.79 2.043-1.583 0-2.65-0.811-2.751-2.037h1.366c0.097 0.646 0.613 0.99 1.45 0.99 0.823 0 1.342-0.339 1.342-0.875 0-0.414-0.256-0.638-0.958-0.817l-1.201-0.294c-1.213-0.294-1.826-0.913-1.826-1.844-0.002-1.189 1.064-2 2.629-2z"></path>
<path fill="#000" d="M90.764 11.744c-0.006-0.326 0.185-0.623 0.485-0.752s0.646-0.064 0.878 0.165c0.233 0.229 0.303 0.575 0.179 0.877s-0.419 0.498-0.744 0.496c-0.438 0.003-0.794-0.348-0.798-0.785zM90.873 13.513h1.379v6.717h-1.379v-6.717z"></path>
<path fill="#000" d="M98.192 15.824c-0.125-0.762-0.814-1.3-1.583-1.239-1.059 0-1.762 0.888-1.762 2.286 0 1.43 0.708 2.293 1.775 2.293 0.76 0.076 1.449-0.453 1.57-1.207h1.327c-0.171 1.445-1.463 2.489-2.911 2.357-1.915 0-3.167-1.309-3.167-3.442 0-2.087 1.251-3.441 3.154-3.441 1.458-0.124 2.75 0.938 2.911 2.393l-1.314-0.001z"></path>
<path fill="#000" d="M27.2 10.907c0-0.326 0-0.651 0-0.975 0-0.272 0-0.544-0.012-0.816-0.008-0.598-0.060-1.195-0.158-1.786-0.1-0.591-0.289-1.164-0.559-1.7-0.548-1.077-1.423-1.952-2.5-2.501-0.535-0.269-1.107-0.458-1.697-0.559-0.591-0.097-1.188-0.15-1.787-0.158-0.272-0.008-0.544-0.011-0.816-0.012h-12.138c-0.272 0-0.544 0-0.816 0.012-0.6 0.008-1.199 0.060-1.791 0.158-0.591 0.101-1.163 0.29-1.697 0.56-1.075 0.548-1.95 1.422-2.498 2.497-0.27 0.535-0.458 1.108-0.559 1.699-0.097 0.591-0.15 1.188-0.158 1.787-0.008 0.272-0.011 0.544-0.012 0.816-0.001 0.329-0.001 0.655-0.001 0.978v10.182c0 0.324 0 0.649 0 0.975 0 0.272 0 0.544 0.012 0.816 0.008 0.599 0.060 1.196 0.158 1.787 0.101 0.591 0.289 1.164 0.559 1.699 0.549 1.075 1.423 1.949 2.498 2.497 0.535 0.27 1.107 0.459 1.697 0.56 0.591 0.098 1.188 0.15 1.787 0.156 0.272 0.008 0.544 0.011 0.816 0.012 0.325 0 0.65 0 0.975 0h11.152c0.272 0 0.544 0 0.816-0.012 0.599-0.006 1.196-0.059 1.787-0.156 0.591-0.101 1.164-0.29 1.699-0.56 1.074-0.549 1.948-1.422 2.497-2.497 0.27-0.535 0.459-1.108 0.56-1.699 0.098-0.591 0.15-1.188 0.156-1.787 0.008-0.272 0.011-0.544 0.012-0.816 0-0.325 0-0.65 0-0.975v-10.182h0.018z"></path>
<path fill="#fff" d="M19.229 6.555c-0.065 0-0.65 0.109-0.721 0.124l-8.084 1.632c-0.184 0.032-0.358 0.109-0.505 0.226-0.152 0.136-0.249 0.322-0.272 0.525-0.012 0.090-0.018 0.181-0.018 0.272v10.118c0.022 0.235-0.042 0.47-0.18 0.661-0.152 0.171-0.363 0.278-0.59 0.302l-0.528 0.106c-0.508 0.084-1.009 0.211-1.496 0.379-0.333 0.12-0.635 0.313-0.883 0.567-0.807 0.869-0.759 2.227 0.107 3.037 0.275 0.255 0.614 0.429 0.982 0.503 0.408 0.082 0.831 0.053 1.458-0.073 0.332-0.062 0.652-0.18 0.945-0.348 0.295-0.173 0.549-0.409 0.744-0.69s0.329-0.598 0.396-0.933c0.066-0.329 0.096-0.665 0.090-1.001v-8.773c0-0.471 0.136-0.594 0.513-0.68 0 0 6.72-1.36 7.034-1.416 0.437-0.084 0.643 0.041 0.643 0.499v5.984c0 0.237 0 0.477-0.165 0.68-0.152 0.17-0.362 0.277-0.589 0.301l-0.529 0.107c-0.508 0.084-1.009 0.21-1.496 0.378-0.333 0.12-0.635 0.314-0.883 0.567-0.397 0.413-0.61 0.969-0.59 1.541s0.272 1.112 0.697 1.496c0.275 0.253 0.615 0.426 0.982 0.499 0.408 0.082 0.832 0.052 1.459-0.073 0.332-0.061 0.651-0.177 0.944-0.344 0.295-0.173 0.549-0.408 0.744-0.688s0.329-0.598 0.396-0.933c0.062-0.33 0.087-0.666 0.076-1.002v-12.836c-0.001-0.465-0.246-0.752-0.684-0.714z"></path>
</svg>
