<!-- Generated by IcoMoon.io -->
<svg version="1.1" xmlns="http://www.w3.org/2000/svg" width="100" height="32" viewBox="0 0 100 32">
<title>logo_itunes_onlight</title>
<path fill="#000" d="M0 5.79h20.421v20.421h-20.421v-20.421z"></path>
<path fill="#000" d="M25.113 11.3c0-0.483 0.391-0.867 0.875-0.867 0.49 0 0.882 0.386 0.882 0.867 0 0.475-0.391 0.861-0.882 0.861-0.484 0-0.875-0.386-0.875-0.861zM25.231 13.238h1.511v7.36h-1.511v-7.36zM30.764 20.598v-8.746h-3.093v-1.35h7.745v1.35h-3.086v8.745h-1.567v0.002zM41.73 20.598h-1.449v-1.266h-0.035c-0.419 0.882-1.154 1.35-2.281 1.35-1.602 0-2.582-1.035-2.582-2.722v-4.722h1.511v4.429c0 1.119 0.531 1.714 1.574 1.714 1.091 0 1.749-0.755 1.749-1.903v-4.239h1.511v7.361h0.002zM43.216 13.238h1.441v1.252h0.036c0.441-0.882 1.182-1.336 2.316-1.336 1.623 0 2.553 1.043 2.553 2.728v4.716h-1.518v-4.422c0-1.106-0.51-1.722-1.574-1.722-1.084 0-1.742 0.77-1.742 1.903v4.24h-1.511v-7.361h-0.001zM57.323 18.436c-0.203 1.337-1.505 2.253-3.169 2.253-2.141 0-3.47-1.434-3.47-3.736 0-2.309 1.337-3.806 3.407-3.806 2.036 0 3.316 1.399 3.316 3.631v0.518h-5.198v0.091c0 1.259 0.791 2.085 1.979 2.085 0.84 0 1.498-0.398 1.701-1.035h1.434zM52.217 16.239h3.679c-0.035-1.126-0.755-1.868-1.805-1.868-1.042 0-1.798 0.756-1.874 1.868zM61.322 13.154c1.63 0 2.798 0.902 2.833 2.203h-1.42c-0.062-0.651-0.616-1.050-1.455-1.050-0.819 0-1.365 0.378-1.365 0.951 0 0.441 0.363 0.734 1.127 0.923l1.238 0.287c1.483 0.356 2.043 0.902 2.043 1.98 0 1.33-1.259 2.239-3.058 2.239-1.735 0-2.903-0.889-3.016-2.232h1.498c0.106 0.707 0.672 1.084 1.588 1.084 0.902 0 1.47-0.371 1.47-0.958 0-0.455-0.28-0.699-1.050-0.896l-1.315-0.322c-1.33-0.322-2.001-1.001-2.001-2.022 0.001-1.3 1.169-2.188 2.883-2.188zM69.678 17.786c0.112 1.001 1.084 1.658 2.414 1.658 1.273 0 2.19-0.658 2.19-1.561 0-0.783-0.554-1.252-1.861-1.574l-1.308-0.315c-1.854-0.448-2.715-1.315-2.715-2.722 0-1.742 1.518-2.938 3.673-2.938 2.134 0 3.597 1.196 3.646 2.938h-1.526c-0.091-1.008-0.923-1.617-2.141-1.617s-2.050 0.616-2.050 1.511c0 0.714 0.531 1.133 1.834 1.455l1.113 0.273c2.071 0.49 2.931 1.322 2.931 2.799 0 1.89-1.505 3.072-3.898 3.072-2.239 0-3.75-1.154-3.847-2.981l1.546 0.001zM79.054 11.495v1.742h1.399v1.196h-1.399v4.058c0 0.63 0.28 0.923 0.896 0.923 0.154 0 0.398-0.021 0.497-0.035v1.189c-0.168 0.042-0.504 0.070-0.84 0.070-1.49 0-2.071-0.56-2.071-1.986v-4.219h-1.070v-1.196h1.070v-1.742h1.518v0.002zM81.074 16.918c0-2.316 1.365-3.771 3.492-3.771 2.134 0 3.491 1.455 3.491 3.771 0 2.322-1.35 3.771-3.491 3.771s-3.492-1.448-3.492-3.771zM86.518 16.918c0-1.588-0.727-2.526-1.952-2.526s-1.952 0.945-1.952 2.526c0 1.594 0.727 2.526 1.952 2.526s1.952-0.93 1.952-2.526zM89.222 13.238h1.441v1.252h0.036c0.23-0.833 0.902-1.33 1.77-1.33 0.218 0 0.398 0.029 0.518 0.056v1.413c-0.118-0.049-0.385-0.091-0.678-0.091-0.972 0-1.574 0.658-1.574 1.693v4.365h-1.511v-7.359h-0.001zM99.916 18.436c-0.203 1.337-1.505 2.253-3.169 2.253-2.141 0-3.47-1.434-3.47-3.736 0-2.309 1.337-3.806 3.407-3.806 2.036 0 3.316 1.399 3.316 3.631v0.518h-5.198v0.091c0 1.259 0.791 2.085 1.979 2.085 0.84 0 1.498-0.398 1.701-1.035h1.434zM94.809 16.239h3.679c-0.035-1.126-0.755-1.868-1.805-1.868-1.042 0-1.798 0.756-1.874 1.868z"></path>
<path fill="#000" d="M10.206 17.319h4.774v5.438h-4.774v-5.438z"></path>
<path fill="#000" d="M2.641 13.587h5.602v3.732h-5.602v-3.732z"></path>
<path fill="#000" d="M5.433 17.319h4.774v5.438h-4.774v-5.438z"></path>
<path fill="#000" d="M12.168 13.586h5.603v3.732h-5.603v-3.732z"></path>
<path fill="#fff" d="M8.244 13.587l-1.213 3.732 3.175 2.306 3.175-2.306-1.213-3.732z"></path>
<path fill="#000" d="M8.244 8.348h3.925v5.239h-3.925v-5.239z"></path>
</svg>
